<svg xmlns="http://www.w3.org/2000/svg" xmlns:xlink="http://www.w3.org/1999/xlink" width="500" zoomAndPan="magnify" viewBox="0 0 375 374.999991" height="500" preserveAspectRatio="xMidYMid meet" version="1.0"><defs><g/><clipPath id="id1"><path d="M 4.972656 4.972656 L 369.472656 4.972656 L 369.472656 369.472656 L 4.972656 369.472656 Z M 4.972656 4.972656 " clip-rule="nonzero"/></clipPath><clipPath id="id2"><path d="M 11.851562 161.753906 L 362.851562 161.753906 L 362.851562 207.503906 L 11.851562 207.503906 Z M 11.851562 161.753906 " clip-rule="nonzero"/></clipPath></defs><g clip-path="url(#id1)"><path fill="#fbfaf9" d="M 187.222656 4.972656 C 86.570312 4.972656 4.972656 86.570312 4.972656 187.222656 C 4.972656 287.878906 86.570312 369.472656 187.222656 369.472656 C 287.878906 369.472656 369.472656 287.878906 369.472656 187.222656 C 369.472656 86.570312 287.878906 4.972656 187.222656 4.972656 " fill-opacity="1" fill-rule="nonzero"/></g><g fill="#5271ff" fill-opacity="1"><g transform="translate(54.359816, 253.316117)"><g><path d="M 10.539062 -140.515625 C 11.59375 -124.882812 11.59375 -118.382812 11.59375 -107.667969 L 11.59375 -59.71875 C 11.59375 -10.011719 29.683594 3.511719 60.421875 3.511719 C 90.457031 3.511719 106.265625 -13.699219 106.265625 -59.71875 L 106.265625 -107.667969 C 106.265625 -118.382812 106.265625 -124.882812 107.316406 -140.515625 L 102.925781 -140.515625 C 103.980469 -124.882812 103.980469 -118.382812 103.980469 -107.667969 L 103.980469 -59.71875 C 103.980469 -15.632812 89.402344 0.175781 61.824219 0.175781 C 34.074219 0.175781 21.605469 -17.386719 21.605469 -59.71875 L 21.605469 -107.667969 C 21.605469 -118.382812 21.78125 -124.882812 22.65625 -140.515625 Z M 10.539062 -140.515625 "/></g></g></g><g fill="#5271ff" fill-opacity="1"><g transform="translate(158.162779, 253.316117)"><g><path d="M 12.296875 0 L 16.6875 0 C 15.632812 -15.632812 15.632812 -22.132812 15.632812 -33.019531 L 15.632812 -131.554688 L 77.632812 3.511719 L 79.566406 3.511719 L 139.109375 -132.082031 L 139.109375 -33.019531 C 139.109375 -22.132812 139.109375 -15.632812 138.054688 0 L 150.175781 0 C 149.296875 -15.632812 149.121094 -22.132812 149.121094 -33.019531 L 149.121094 -107.667969 C 149.121094 -118.382812 149.296875 -124.882812 150.175781 -140.515625 L 140.515625 -140.515625 L 82.726562 -10.1875 L 22.65625 -140.515625 L 12.296875 -140.515625 C 13.347656 -124.882812 13.347656 -118.382812 13.347656 -107.667969 L 13.347656 -33.019531 C 13.347656 -22.132812 13.347656 -15.632812 12.296875 0 Z M 12.296875 0 "/></g></g></g><g clip-path="url(#id2)"><path fill="#fbfaf9" d="M 11.851562 161.753906 L 362.851562 161.753906 L 362.851562 207.503906 L 11.851562 207.503906 L 11.851562 161.753906 " fill-opacity="1" fill-rule="nonzero"/></g><path stroke-linecap="butt" transform="matrix(0.75, 0, 0, 0.75, 37.500002, 174.148817)" fill="none" stroke-linejoin="miter" d="M -0.00000271667 -0.000506486 L 400.000024 -0.000506486 " stroke="#ffde59" stroke-width="1" stroke-opacity="1" stroke-miterlimit="4"/><path stroke-linecap="butt" transform="matrix(0.75, 0, 0, 0.75, 37.500002, 195.982823)" fill="none" stroke-linejoin="miter" d="M -0.00000271667 0.00206916 L 400.000024 0.00206916 " stroke="#ffde59" stroke-width="1" stroke-opacity="1" stroke-miterlimit="4"/><g fill="#ffde59" fill-opacity="1"><g transform="translate(33.303694, 189.565828)"><g><path d="M 5.765625 0.109375 C 4.398438 0.109375 3.335938 -0.273438 2.578125 -1.046875 C 1.816406 -1.828125 1.4375 -2.945312 1.4375 -4.40625 L 1.4375 -10.203125 L 2.90625 -10.203125 L 2.90625 -4.453125 C 2.90625 -2.273438 3.859375 -1.1875 5.765625 -1.1875 C 6.703125 -1.1875 7.414062 -1.453125 7.90625 -1.984375 C 8.40625 -2.523438 8.65625 -3.347656 8.65625 -4.453125 L 8.65625 -10.203125 L 10.078125 -10.203125 L 10.078125 -4.40625 C 10.078125 -2.9375 9.695312 -1.816406 8.9375 -1.046875 C 8.175781 -0.273438 7.117188 0.109375 5.765625 0.109375 Z M 5.765625 0.109375 "/></g></g></g><g fill="#ffde59" fill-opacity="1"><g transform="translate(56.489624, 189.565828)"><g><path d="M 10.3125 -10.203125 L 10.3125 0 L 9.109375 0 L 2.984375 -7.609375 L 2.984375 0 L 1.53125 0 L 1.53125 -10.203125 L 2.71875 -10.203125 L 8.84375 -2.59375 L 8.84375 -10.203125 Z M 10.3125 -10.203125 "/></g></g></g><g fill="#ffde59" fill-opacity="1"><g transform="translate(79.981444, 189.565828)"><g><path d="M 1.53125 -10.203125 L 2.984375 -10.203125 L 2.984375 0 L 1.53125 0 Z M 1.53125 -10.203125 "/></g></g></g><g fill="#ffde59" fill-opacity="1"><g transform="translate(96.160959, 189.565828)"><g><path d="M 10.390625 -10.203125 L 5.921875 0 L 4.46875 0 L -0.015625 -10.203125 L 1.5625 -10.203125 L 5.234375 -1.828125 L 8.9375 -10.203125 Z M 10.390625 -10.203125 "/></g></g></g><g fill="#ffde59" fill-opacity="1"><g transform="translate(118.196151, 189.565828)"><g><path d="M 8.9375 -1.265625 L 8.9375 0 L 1.53125 0 L 1.53125 -10.203125 L 8.734375 -10.203125 L 8.734375 -8.9375 L 2.984375 -8.9375 L 2.984375 -5.796875 L 8.109375 -5.796875 L 8.109375 -4.5625 L 2.984375 -4.5625 L 2.984375 -1.265625 Z M 8.9375 -1.265625 "/></g></g></g><g fill="#ffde59" fill-opacity="1"><g transform="translate(139.619552, 189.565828)"><g><path d="M 8.359375 0 L 6.15625 -3.140625 C 5.882812 -3.117188 5.671875 -3.109375 5.515625 -3.109375 L 2.984375 -3.109375 L 2.984375 0 L 1.53125 0 L 1.53125 -10.203125 L 5.515625 -10.203125 C 6.835938 -10.203125 7.875 -9.882812 8.625 -9.25 C 9.382812 -8.625 9.765625 -7.753906 9.765625 -6.640625 C 9.765625 -5.859375 9.566406 -5.191406 9.171875 -4.640625 C 8.785156 -4.085938 8.234375 -3.679688 7.515625 -3.421875 L 9.9375 0 Z M 5.46875 -4.34375 C 6.394531 -4.34375 7.097656 -4.539062 7.578125 -4.9375 C 8.066406 -5.34375 8.3125 -5.910156 8.3125 -6.640625 C 8.3125 -7.378906 8.066406 -7.945312 7.578125 -8.34375 C 7.097656 -8.738281 6.394531 -8.9375 5.46875 -8.9375 L 2.984375 -8.9375 L 2.984375 -4.34375 Z M 5.46875 -4.34375 "/></g></g></g><g fill="#ffde59" fill-opacity="1"><g transform="translate(161.873239, 189.565828)"><g><path d="M 4.5 0.109375 C 3.738281 0.109375 3 -0.00390625 2.28125 -0.234375 C 1.5625 -0.472656 1 -0.785156 0.59375 -1.171875 L 1.140625 -2.296875 C 1.523438 -1.953125 2.019531 -1.671875 2.625 -1.453125 C 3.238281 -1.234375 3.863281 -1.125 4.5 -1.125 C 5.34375 -1.125 5.972656 -1.265625 6.390625 -1.546875 C 6.816406 -1.835938 7.03125 -2.222656 7.03125 -2.703125 C 7.03125 -3.046875 6.914062 -3.328125 6.6875 -3.546875 C 6.457031 -3.765625 6.171875 -3.929688 5.828125 -4.046875 C 5.492188 -4.171875 5.023438 -4.304688 4.421875 -4.453125 C 3.648438 -4.628906 3.023438 -4.8125 2.546875 -5 C 2.078125 -5.1875 1.675781 -5.46875 1.34375 -5.84375 C 1.007812 -6.226562 0.84375 -6.75 0.84375 -7.40625 C 0.84375 -7.945312 0.984375 -8.4375 1.265625 -8.875 C 1.554688 -9.3125 1.992188 -9.660156 2.578125 -9.921875 C 3.160156 -10.191406 3.882812 -10.328125 4.75 -10.328125 C 5.351562 -10.328125 5.945312 -10.25 6.53125 -10.09375 C 7.113281 -9.9375 7.613281 -9.710938 8.03125 -9.421875 L 7.546875 -8.25 C 7.117188 -8.519531 6.660156 -8.722656 6.171875 -8.859375 C 5.691406 -9.003906 5.21875 -9.078125 4.75 -9.078125 C 3.925781 -9.078125 3.304688 -8.925781 2.890625 -8.625 C 2.484375 -8.320312 2.28125 -7.9375 2.28125 -7.46875 C 2.28125 -7.113281 2.394531 -6.828125 2.625 -6.609375 C 2.851562 -6.390625 3.140625 -6.21875 3.484375 -6.09375 C 3.835938 -5.976562 4.304688 -5.851562 4.890625 -5.71875 C 5.660156 -5.53125 6.28125 -5.34375 6.75 -5.15625 C 7.21875 -4.976562 7.617188 -4.695312 7.953125 -4.3125 C 8.285156 -3.9375 8.453125 -3.425781 8.453125 -2.78125 C 8.453125 -2.25 8.304688 -1.757812 8.015625 -1.3125 C 7.722656 -0.875 7.28125 -0.523438 6.6875 -0.265625 C 6.09375 -0.015625 5.363281 0.109375 4.5 0.109375 Z M 4.5 0.109375 "/></g></g></g><g fill="#ffde59" fill-opacity="1"><g transform="translate(182.58289, 189.565828)"><g><path d="M 8.03125 -2.546875 L 2.609375 -2.546875 L 1.484375 0 L -0.015625 0 L 4.609375 -10.203125 L 6.046875 -10.203125 L 10.6875 0 L 9.15625 0 Z M 7.515625 -3.71875 L 5.328125 -8.71875 L 3.125 -3.71875 Z M 7.515625 -3.71875 "/></g></g></g><g fill="#ffde59" fill-opacity="1"><g transform="translate(204.909407, 189.565828)"><g><path d="M 1.53125 -10.203125 L 2.984375 -10.203125 L 2.984375 -1.265625 L 8.515625 -1.265625 L 8.515625 0 L 1.53125 0 Z M 1.53125 -10.203125 "/></g></g></g><g fill="#ffde59" fill-opacity="1"><g transform="translate(225.22577, 189.565828)"><g/></g></g><g fill="#ffde59" fill-opacity="1"><g transform="translate(240.808068, 189.565828)"><g><path d="M 10.984375 0 L 10.984375 -7.4375 L 7.28125 -1.234375 L 6.625 -1.234375 L 2.9375 -7.390625 L 2.9375 0 L 1.53125 0 L 1.53125 -10.203125 L 2.71875 -10.203125 L 6.984375 -3.03125 L 11.1875 -10.203125 L 12.375 -10.203125 L 12.390625 0 Z M 10.984375 0 "/></g></g></g><g fill="#ffde59" fill-opacity="1"><g transform="translate(266.382888, 189.565828)"><g><path d="M 8.9375 -1.265625 L 8.9375 0 L 1.53125 0 L 1.53125 -10.203125 L 8.734375 -10.203125 L 8.734375 -8.9375 L 2.984375 -8.9375 L 2.984375 -5.796875 L 8.109375 -5.796875 L 8.109375 -4.5625 L 2.984375 -4.5625 L 2.984375 -1.265625 Z M 8.9375 -1.265625 "/></g></g></g><g fill="#ffde59" fill-opacity="1"><g transform="translate(287.806295, 189.565828)"><g><path d="M 8.359375 0 L 6.15625 -3.140625 C 5.882812 -3.117188 5.671875 -3.109375 5.515625 -3.109375 L 2.984375 -3.109375 L 2.984375 0 L 1.53125 0 L 1.53125 -10.203125 L 5.515625 -10.203125 C 6.835938 -10.203125 7.875 -9.882812 8.625 -9.25 C 9.382812 -8.625 9.765625 -7.753906 9.765625 -6.640625 C 9.765625 -5.859375 9.566406 -5.191406 9.171875 -4.640625 C 8.785156 -4.085938 8.234375 -3.679688 7.515625 -3.421875 L 9.9375 0 Z M 5.46875 -4.34375 C 6.394531 -4.34375 7.097656 -4.539062 7.578125 -4.9375 C 8.066406 -5.34375 8.3125 -5.910156 8.3125 -6.640625 C 8.3125 -7.378906 8.066406 -7.945312 7.578125 -8.34375 C 7.097656 -8.738281 6.394531 -8.9375 5.46875 -8.9375 L 2.984375 -8.9375 L 2.984375 -4.34375 Z M 5.46875 -4.34375 "/></g></g></g><g fill="#ffde59" fill-opacity="1"><g transform="translate(310.059971, 189.565828)"><g><path d="M 6.09375 0.109375 C 5.070312 0.109375 4.148438 -0.113281 3.328125 -0.5625 C 2.503906 -1.007812 1.859375 -1.628906 1.390625 -2.421875 C 0.929688 -3.210938 0.703125 -4.109375 0.703125 -5.109375 C 0.703125 -6.097656 0.929688 -6.988281 1.390625 -7.78125 C 1.859375 -8.570312 2.503906 -9.191406 3.328125 -9.640625 C 4.160156 -10.097656 5.085938 -10.328125 6.109375 -10.328125 C 6.898438 -10.328125 7.625 -10.191406 8.28125 -9.921875 C 8.945312 -9.648438 9.515625 -9.253906 9.984375 -8.734375 L 9.03125 -7.8125 C 8.269531 -8.625 7.316406 -9.03125 6.171875 -9.03125 C 5.410156 -9.03125 4.722656 -8.859375 4.109375 -8.515625 C 3.492188 -8.171875 3.015625 -7.695312 2.671875 -7.09375 C 2.328125 -6.5 2.15625 -5.835938 2.15625 -5.109375 C 2.15625 -4.367188 2.328125 -3.695312 2.671875 -3.09375 C 3.015625 -2.5 3.492188 -2.03125 4.109375 -1.6875 C 4.722656 -1.351562 5.410156 -1.1875 6.171875 -1.1875 C 7.304688 -1.1875 8.257812 -1.59375 9.03125 -2.40625 L 9.984375 -1.484375 C 9.515625 -0.960938 8.945312 -0.566406 8.28125 -0.296875 C 7.613281 -0.0234375 6.882812 0.109375 6.09375 0.109375 Z M 6.09375 0.109375 "/></g></g></g><g fill="#ffde59" fill-opacity="1"><g transform="translate(332.255397, 189.565828)"><g><path d="M 5.4375 -3.53125 L 5.4375 0 L 4 0 L 4 -3.5625 L -0.0625 -10.203125 L 1.5 -10.203125 L 4.765625 -4.828125 L 8.046875 -10.203125 L 9.484375 -10.203125 Z M 5.4375 -3.53125 "/></g></g></g></svg>